<svg xmlns="http://www.w3.org/2000/svg" width="64" height="64" viewBox="0 0 64 64"><path d="M10 45.3s0 13.3 22 13.3 22-13.3 22-13.3z" fill="#e72c3c" fill-rule="evenodd" stroke="#141414" stroke-width=".8"/><path d="M31 45.3h2V5.6h-2v39.7" fill="#bfaa55" fill-rule="evenodd" stroke="#141414"/><path d="M31 5.6l-21 36c2.3-1 5-2 7.3-2.4.5 0 5-10 5.6-10h3.4c.5 0-3 9.7-2.3 9.8 2.5.2 5 1 7 2.5v-36zm-3.4 13l-.8 7.3h-3l3.8-7.5z" fill="#3a6e92" fill-rule="evenodd" stroke="#141414"/><circle cx="32" cy="3.1" r="2.6" fill="#bfaa55" stroke="#141414" stroke-width=".8"/><path d="M37.6 4.2c-1.8 0-2 .7-4.6 1.4v36s5.4 5 15.8-.4c10.5-5.3 3.7-17.4-3.2-19.5-1.5-.4-2-.7-5-1 2-.7 3.8-.8 5.3-1.7 1.5-1 2.5-3 2.7-5.4.2-2.6-1.3-5-2.7-6.4-2-1.7-4.4-3-8.4-3zm0 5.2s2.8-.2 4 1c1 1.5 1.2 3.4 0 4.7-1 1.5-4 1-4 1zm0 17.4s4.3-.3 5.8 1.6c1.5 1.8 1.8 4.3.3 6-1.6 2-6 1.3-6 1.3z" fill="#3a6e92" fill-rule="evenodd" stroke="#141414"/><text style="line-height:125%" x="9.5" y="63.6" font-size="5.6" font-family="sans-serif" letter-spacing="0" word-spacing="0" fill="#141414"><tspan x="9.5" y="63.6" style="-inkscape-font-specification:Comfortaa" font-family="Comfortaa">Boat Advertiser</tspan></text></svg>