<?xml version="1.0" encoding="UTF-8" standalone="no"?>
<!-- Created with Inkscape (http://www.inkscape.org/) -->

<svg
   xmlns:dc="http://purl.org/dc/elements/1.1/"
   xmlns:cc="http://creativecommons.org/ns#"
   xmlns:rdf="http://www.w3.org/1999/02/22-rdf-syntax-ns#"
   xmlns:svg="http://www.w3.org/2000/svg"
   xmlns="http://www.w3.org/2000/svg"
   xmlns:sodipodi="http://sodipodi.sourceforge.net/DTD/sodipodi-0.dtd"
   xmlns:inkscape="http://www.inkscape.org/namespaces/inkscape"
   width="64"
   height="64"
   id="svg4715"
   version="1.1"
   inkscape:version="0.91 r13725"
   viewBox="0 0 64 64"
   sodipodi:docname="draft3.svg"
   inkscape:export-filename="C:\Users\Brierley\Documents\posterForWork\Fredericka_the_Great\draft2.png"
   inkscape:export-xdpi="1760.1206"
   inkscape:export-ydpi="1760.1206">
  <defs
     id="defs4717" />
  <sodipodi:namedview
     id="base"
     pagecolor="#ffffff"
     bordercolor="#666666"
     borderopacity="1.0"
     inkscape:pageopacity="0.0"
     inkscape:pageshadow="2"
     inkscape:zoom="9.6108782"
     inkscape:cx="42.741432"
     inkscape:cy="33.770796"
     inkscape:current-layer="layer1"
     showgrid="true"
     inkscape:document-units="px"
     inkscape:grid-bbox="true"
     showguides="true"
     inkscape:guide-bbox="true"
     inkscape:object-paths="true"
     inkscape:snap-intersection-paths="true"
     inkscape:object-nodes="true"
     inkscape:snap-midpoints="false"
     inkscape:snap-smooth-nodes="true"
     inkscape:window-width="1280"
     inkscape:window-height="961"
     inkscape:window-x="-8"
     inkscape:window-y="-8"
     inkscape:window-maximized="1"
     inkscape:snap-nodes="true">
    <sodipodi:guide
       position="-13.636364,18.727273"
       orientation="0,1"
       id="guide5263" />
    <sodipodi:guide
       position="38,5.4545455"
       orientation="0,1"
       id="guide5265" />
    <sodipodi:guide
       position="10,63.818182"
       orientation="1,0"
       id="guide5267"
       inkscape:label=""
       inkscape:color="rgb(0,0,255)" />
    <sodipodi:guide
       position="54,68.909091"
       orientation="1,0"
       id="guide5269"
       inkscape:label=""
       inkscape:color="rgb(0,0,255)" />
    <sodipodi:guide
       position="32,74.909091"
       orientation="1,0"
       id="guide5271"
       inkscape:label=""
       inkscape:color="rgb(0,0,255)" />
    <sodipodi:guide
       position="31,64.909091"
       orientation="1,0"
       id="guide5275"
       inkscape:label=""
       inkscape:color="rgb(0,0,255)" />
    <sodipodi:guide
       position="33,60.181818"
       orientation="1,0"
       id="guide5277"
       inkscape:label=""
       inkscape:color="rgb(0,0,255)" />
    <sodipodi:guide
       position="10,58.354756"
       orientation="0,1"
       id="guide5279" />
    <sodipodi:guide
       position="10,22.493573"
       orientation="0,1"
       id="guide5287" />
    <sodipodi:guide
       position="49.367089,45.374878"
       orientation="0,1"
       id="guide5291" />
    <sodipodi:guide
       position="49.853944,41.966894"
       orientation="0,1"
       id="guide5300" />
    <sodipodi:guide
       position="50.730282,48.880234"
       orientation="1,0"
       id="guide5302" />
    <sodipodi:guide
       position="80.533743,64.82238"
       orientation="1,0"
       id="guide5325" />
    <sodipodi:guide
       position="28.093166,52.960821"
       orientation="1,0"
       id="guide4190" />
  </sodipodi:namedview>
  <metadata
     id="metadata4720">
    <rdf:RDF>
      <cc:Work
         rdf:about="">
        <dc:format>image/svg+xml</dc:format>
        <dc:type
           rdf:resource="http://purl.org/dc/dcmitype/StillImage" />
        <dc:title />
      </cc:Work>
    </rdf:RDF>
  </metadata>
  <g
     id="layer1"
     inkscape:label="Layer 1"
     inkscape:groupmode="layer">
    <path
       style="fill:#bfaa55;fill-rule:evenodd;stroke:#141414;stroke-width:1px;stroke-linecap:butt;stroke-linejoin:miter;stroke-opacity:1;fill-opacity:1"
       d="m 31,45.272727 2,0 0,-39.627483 -2,0 0,39.627483"
       id="path5281"
       inkscape:connector-curvature="0" />
    <path
       style="fill:#e72c3c;fill-rule:evenodd;stroke:#141414;stroke-width:0.83396357px;stroke-linecap:butt;stroke-linejoin:miter;stroke-opacity:1;fill-opacity:1"
       d="m 9.9182561,45.272727 c 0,0 0,13.354471 22.0817439,13.354472 22.081744,0 22.081744,-13.354472 22.081744,-13.354472 z"
       id="path5273"
       inkscape:connector-curvature="0"
       sodipodi:nodetypes="cscc" />
    <path
       style="fill:#3a6e92;fill-opacity:1;fill-rule:evenodd;stroke:#141414;stroke-width:1px;stroke-linecap:butt;stroke-linejoin:miter;stroke-opacity:1"
       d="m 33,5.645099 21,35.861328 c -2.268324,-1.003618 -5.002233,-1.838462 -7.318359,-2.265625 -0.523698,-0.09439 -5.056578,-9.949255 -5.609375,-10.015625 -1.174123,-0.155056 -2.336487,-0.171018 -3.433594,-0.167968 -0.586748,0.01622 2.812303,9.829596 2.220703,9.90039 C 37.49297,39.240777 35.120822,39.996144 33,41.506427 L 33,5.645099 Z m 3.402345,12.863281 0.826171,7.363282 3.095702,0.207031 -3.921873,-7.570313 z"
       id="path5289"
       inkscape:connector-curvature="0" />
    <path
       style="fill:#3a6e92;fill-opacity:1;fill-rule:evenodd;stroke:#000000;stroke-width:1px;stroke-linecap:butt;stroke-linejoin:miter;stroke-opacity:1"
       d="m 31,5.4433594 c 0,0 -17.462342,5.5762116 -21,36.0624996 8.740096,3.641707 21,0 21,0 L 31,24.895059 24.02841,26.71449 31,22.033106 Z m -2.90625,5.5957026 -0.3125,7.585938 -4.994141,3.408203 0.207032,-7.351562 z m -0.02734,17.839844 -0.320312,7.824219 -5.152344,3.513672 0.214844,-7.582031 z"
       id="path4169"
       inkscape:connector-curvature="0"
       sodipodi:nodetypes="ccccccccccccccccc" />
    <circle
       style="fill:#bfaa55;fill-opacity:1;stroke:#141414;stroke-width:0.8;stroke-linejoin:miter;stroke-miterlimit:4;stroke-dasharray:none;stroke-dashoffset:0;stroke-opacity:1"
       id="path5285"
       cx="32"
       cy="3.0668416"
       r="2.5784023" />
    <text
       xml:space="preserve"
       style="font-style:normal;font-weight:normal;font-size:5.5748682px;line-height:125%;font-family:sans-serif;letter-spacing:0px;word-spacing:0px;fill:#141414;fill-opacity:1;stroke:none;stroke-width:1px;stroke-linecap:butt;stroke-linejoin:miter;stroke-opacity:1;"
       x="9.4526434"
       y="63.623428"
       id="text4159"
       sodipodi:linespacing="125%"
       inkscape:export-xdpi="1760.1206"
       inkscape:export-ydpi="1760.1206"><tspan
         sodipodi:role="line"
         id="tspan4161"
         x="9.4526434"
         y="63.623428"
         style="font-style:normal;font-variant:normal;font-weight:normal;font-stretch:normal;font-family:Comfortaa;-inkscape-font-specification:Comfortaa;fill:#141414;fill-opacity:1;">Boat Advertiser</tspan></text>
    <path
       style="fill:#3a6e92;fill-opacity:1;stroke:none;stroke-width:0.8;stroke-linejoin:miter;stroke-miterlimit:4;stroke-dasharray:none;stroke-dashoffset:0;stroke-opacity:1"
       id="path4202"
       d="m 78.490632,14.643872 c -0.222428,0.233115 -0.428796,0.481167 -0.645754,0.719538 -0.140982,0.149502 -0.31437,0.261959 -0.491041,0.364534 -1.44,0.836066 -0.906941,0.637693 -1.55309,0.867194 -0.287561,0.13104 -0.604695,0.161249 -0.916194,0.181516 -0.360034,0.01476 -0.720514,0.01469 -1.080798,0.01714 -0.27315,0.0088 -0.537859,0.01255 -0.80341,-0.05574 -0.383187,-0.126426 -0.76795,-0.244806 -1.139732,-0.402692 -0.291897,-0.116615 -0.591361,-0.23293 -0.84557,-0.421312 -0.135332,-0.0955 -0.231381,-0.230911 -0.409872,-0.216664 -0.292634,0.07456 -0.578059,0.173656 -0.860644,0.280084 -0.30637,0.08368 -0.593469,0.221514 -0.894762,0.31946 -0.207238,0.113388 -0.44405,0.128178 -0.665248,0.194079 -0.19206,0.105502 -0.405914,0.160851 -0.603757,0.25602 -0.13044,0.07286 -0.28516,0.07559 -0.415269,0.146943 -0.02857,0.01566 -0.05469,0.03542 -0.08203,0.05313 -0.02903,0.01531 -0.05807,0.03061 -0.0871,0.04592 -0.209223,0.09212 -0.41962,0.18148 -0.63938,0.247242 -0.200381,0.05839 -0.400435,0.108594 -0.607047,0.141511 0,0 1.217882,-0.918722 1.217882,-0.918722 l 0,0 c 0.201529,-0.04127 0.39863,-0.09817 0.595045,-0.159164 0.214696,-0.07804 0.426203,-0.165654 0.629014,-0.271152 0.18813,-0.09861 0.395329,-0.143078 0.58696,-0.23468 0.205462,-0.08301 0.411569,-0.167065 0.621313,-0.237428 0.223598,-0.04779 0.440586,-0.112017 0.652227,-0.199723 0.294315,-0.10667 0.586249,-0.219889 0.884561,-0.315432 0.296446,-0.105579 0.603398,-0.233505 0.921445,-0.234473 0.181798,0.05069 0.307697,0.163704 0.450336,0.282439 0.244405,0.175107 0.521168,0.298104 0.7994,0.40908 0.370049,0.152733 0.754201,0.263535 1.140489,0.367497 0.258936,0.04138 0.520851,0.02674 0.782389,0.03205 0.356882,0.0021 0.714349,0.0036 1.070349,-0.02545 0.308489,-0.03286 0.612833,-0.08671 0.894182,-0.224753 0.523032,-0.259219 0.2413,-0.122947 -1.059459,0.625608 -0.042,0.02417 0.08179,-0.05201 0.123269,-0.07705 0.02097,-0.01266 0.242422,-0.140632 0.260518,-0.152913 0.04474,-0.03036 0.08571,-0.06594 0.128564,-0.09891 0.214693,-0.230482 0.429204,-0.462677 0.618337,-0.714937 0,0 1.423881,-0.589791 1.423881,-0.589791 z"
       inkscape:connector-curvature="0" />
  </g>
</svg>
