<?xml version="1.0" encoding="UTF-8" standalone="no"?>
<!-- Created with Inkscape (http://www.inkscape.org/) -->

<svg
   xmlns:dc="http://purl.org/dc/elements/1.1/"
   xmlns:cc="http://creativecommons.org/ns#"
   xmlns:rdf="http://www.w3.org/1999/02/22-rdf-syntax-ns#"
   xmlns:svg="http://www.w3.org/2000/svg"
   xmlns="http://www.w3.org/2000/svg"
   xmlns:sodipodi="http://sodipodi.sourceforge.net/DTD/sodipodi-0.dtd"
   xmlns:inkscape="http://www.inkscape.org/namespaces/inkscape"
   width="64"
   height="64"
   id="svg4136"
   version="1.1"
   inkscape:version="0.91 r13725"
   viewBox="0 0 64 64"
   sodipodi:docname="boat advetisers.svg">
  <defs
     id="defs4138" />
  <sodipodi:namedview
     id="base"
     pagecolor="#ffffff"
     bordercolor="#666666"
     borderopacity="1.0"
     inkscape:pageopacity="0.0"
     inkscape:pageshadow="2"
     inkscape:zoom="1.5954864"
     inkscape:cx="105.31607"
     inkscape:cy="83.449951"
     inkscape:current-layer="layer1"
     showgrid="true"
     inkscape:document-units="px"
     inkscape:grid-bbox="true"
     inkscape:window-width="1280"
     inkscape:window-height="961"
     inkscape:window-x="-8"
     inkscape:window-y="-8"
     inkscape:window-maximized="1" />
  <metadata
     id="metadata4141">
    <rdf:RDF>
      <cc:Work
         rdf:about="">
        <dc:format>image/svg+xml</dc:format>
        <dc:type
           rdf:resource="http://purl.org/dc/dcmitype/StillImage" />
        <dc:title />
      </cc:Work>
    </rdf:RDF>
  </metadata>
  <g
     id="layer1"
     inkscape:label="Layer 1"
     inkscape:groupmode="layer">
    <rect
       style="fill:#d9eeff;fill-opacity:1;stroke:none;stroke-width:0.80000001;stroke-linejoin:miter;stroke-miterlimit:4;stroke-dasharray:none;stroke-dashoffset:0;stroke-opacity:1"
       id="rect4163"
       width="72.908821"
       height="72.908821"
       x="-4"
       y="4.1818175" />
    <text
       xml:space="preserve"
       style="font-style:normal;font-weight:normal;font-size:40px;line-height:125%;font-family:sans-serif;letter-spacing:0px;word-spacing:0px;fill:#000000;fill-opacity:1;stroke:none;stroke-width:1px;stroke-linecap:butt;stroke-linejoin:miter;stroke-opacity:1"
       x="6.545455"
       y="52.181816"
       id="text4144"
       sodipodi:linespacing="125%"><tspan
         sodipodi:role="line"
         id="tspan4146"
         x="6.545455"
         y="52.181816"
         style="font-style:normal;font-variant:normal;font-weight:normal;font-stretch:normal;font-family:Righteous;-inkscape-font-specification:Righteous">BA</tspan></text>
    <path
       style="fill:#53b4ff;fill-opacity:1;fill-rule:evenodd;stroke:none;stroke-width:1px;stroke-linecap:butt;stroke-linejoin:miter;stroke-opacity:1"
       d="m 1.2727273,56.363637 c 0,0 10.5098677,-7.103048 19.2852047,-8.519586 8.77534,-1.416536 18.721584,3.669739 26.957815,3.448404 8.236228,-0.221336 17.211525,-2.637014 17.211525,-2.637014 0,0 -10.038472,5.992812 -18.040999,7.3025 C 38.683749,57.26763 30.880015,53.637146 22.424242,53.92947 13.968469,54.221794 1.2727273,56.363637 1.2727273,56.363637 Z"
       id="path4692"
       inkscape:connector-curvature="0"
       sodipodi:nodetypes="ccccccc" />
    <text
       xml:space="preserve"
       style="font-style:normal;font-weight:normal;font-size:40px;line-height:125%;font-family:sans-serif;letter-spacing:0px;word-spacing:0px;fill:#000000;fill-opacity:1;stroke:none;stroke-width:1px;stroke-linecap:butt;stroke-linejoin:miter;stroke-opacity:1"
       x="12.909091"
       y="32.363636"
       id="text4694"
       sodipodi:linespacing="125%"><tspan
         sodipodi:role="line"
         id="tspan4696"
         x="12.909091"
         y="32.363636" /></text>
    <path
       style="fill:#53b4ff;fill-opacity:1;fill-rule:evenodd;stroke:none;stroke-width:1px;stroke-linecap:butt;stroke-linejoin:miter;stroke-opacity:1"
       d="m 9.4679599,57.012126 c 0,0 5.8251471,-4.886275 10.6027331,-5.763421 4.777588,-0.877144 10.064888,2.876311 14.527808,2.83927 4.462918,-0.03704 9.367829,-1.620131 9.367829,-1.620131 0,0 -5.548759,4.105465 -9.905943,4.918062 -4.357182,0.812599 -8.512428,-1.876805 -13.095553,-1.792598 -4.583125,0.08421 -11.4968741,1.418818 -11.4968741,1.418818 z"
       id="path4692-0"
       inkscape:connector-curvature="0"
       sodipodi:nodetypes="ccccccc" />
    <text
       xml:space="preserve"
       style="font-style:normal;font-weight:normal;font-size:40px;line-height:125%;font-family:sans-serif;letter-spacing:0px;word-spacing:0px;fill:#000000;fill-opacity:1;stroke:none;stroke-width:1px;stroke-linecap:butt;stroke-linejoin:miter;stroke-opacity:1"
       x="-1.5083451"
       y="-20.35973"
       id="text4144-0"
       sodipodi:linespacing="125%"><tspan
         sodipodi:role="line"
         id="tspan4146-8"
         x="-1.5083451"
         y="-20.35973"
         style="font-style:normal;font-variant:normal;font-weight:normal;font-stretch:normal;font-family:Righteous;-inkscape-font-specification:Righteous">Boat Advertisers</tspan></text>
    <path
       style="fill:#53b4ff;fill-opacity:1;fill-rule:evenodd;stroke:none;stroke-width:1px;stroke-linecap:butt;stroke-linejoin:miter;stroke-opacity:1"
       d="m -16.594638,-15.345939 c 0,0 21.673175,-8.637411 39.769444,-10.359942 18.096276,-1.722528 38.607156,4.462457 55.591698,4.19331 16.98453,-0.269148 35.493156,-3.206648 35.493156,-3.206648 0,0 -20.701076,7.287348 -37.203678,8.879948 -16.502594,1.592601 -32.595246,-2.822121 -50.032522,-2.466651 -17.437271,0.35547 -43.618098,2.959983 -43.618098,2.959983 z"
       id="path4692-5"
       inkscape:connector-curvature="0"
       sodipodi:nodetypes="ccccccc" />
    <path
       style="fill:#53b4ff;fill-opacity:1;fill-rule:evenodd;stroke:none;stroke-width:1px;stroke-linecap:butt;stroke-linejoin:miter;stroke-opacity:1"
       d="m 6.9382937,-12.788584 c 0,0 12.0124653,-5.941782 21.8646763,-7.008405 9.852217,-1.066619 20.755547,3.497637 29.958863,3.452595 9.203314,-0.04504 19.318092,-1.970103 19.318092,-1.970103 0,0 -11.442504,4.992306 -20.427776,5.980435 -8.985266,0.988132 -17.554104,-2.282222 -27.005305,-2.179825 -9.451199,0.102401 -23.7085503,1.725303 -23.7085503,1.725303 z"
       id="path4692-0-1"
       inkscape:connector-curvature="0"
       sodipodi:nodetypes="ccccccc" />
    <path
       style="fill:#53b4ff;fill-opacity:1;fill-rule:evenodd;stroke:none;stroke-width:1px;stroke-linecap:butt;stroke-linejoin:miter;stroke-opacity:1"
       d="m 68.55816,-13.801105 c 0,0 24.456297,-8.63741 44.87636,-10.359942 20.42009,-1.722528 43.56484,4.462458 62.73042,4.193311 19.16557,-0.269148 40.05096,-3.206648 40.05096,-3.206648 0,0 -23.35938,7.287348 -41.98113,8.879947 -18.62175,1.592601 -36.78092,-2.82212 -56.45737,-2.46665 -19.676457,0.35547 -49.21924,2.959982 -49.21924,2.959982 z"
       id="path4692-5-0"
       inkscape:connector-curvature="0"
       sodipodi:nodetypes="ccccccc" />
    <path
       style="fill:#53b4ff;fill-opacity:1;fill-rule:evenodd;stroke:none;stroke-width:1px;stroke-linecap:butt;stroke-linejoin:miter;stroke-opacity:1"
       d="m 287.92445,-23.230107 c 0,0 -11.79141,6.3692 -21.59897,7.788831 -9.80758,1.419627 -20.86774,-2.750256 -30.06351,-2.374843 -9.19576,0.37541 -19.23491,2.662354 -19.23491,2.662354 0,0 11.2559,-5.399875 20.19991,-6.709939 8.944,-1.310067 17.62472,1.650557 27.06615,1.208927 9.44143,-0.441634 23.63133,-2.57533 23.63133,-2.57533 z"
       id="path4692-0-1-1"
       inkscape:connector-curvature="0"
       sodipodi:nodetypes="ccccccc" />
    <path
       style="fill:#53b4ff;fill-opacity:1;fill-rule:evenodd;stroke:none;stroke-width:1px;stroke-linecap:butt;stroke-linejoin:miter;stroke-opacity:1"
       d="m 130.97402,-14.243301 c 0,0 24.45629,-8.637409 44.87636,-10.359941 20.42009,-1.722528 43.56484,4.462458 62.73042,4.193311 19.16557,-0.269148 40.05096,-3.206648 40.05096,-3.206648 0,0 -23.35938,7.287348 -41.98113,8.879946 -18.62175,1.592601 -36.78092,-2.822119 -56.45737,-2.466649 -19.67646,0.35547 -49.21924,2.959981 -49.21924,2.959981 z"
       id="path4692-5-0-6"
       inkscape:connector-curvature="0"
       sodipodi:nodetypes="ccccccc" />
  </g>
</svg>
